<?xml version="1.0" encoding="UTF-8"?>
<svg xmlns="http://www.w3.org/2000/svg" width="144" height="144" viewBox="0 0 144 144">
  <rect width="144" height="144" fill="#2f4858" rx="24"/>
  <g transform="translate(36, 36)">
    <path d="M14.106 5.553a2 2 0 0 0 1.788 0l3.659-1.83A1 1 0 0 1 21 4.619v12.764a1 1 0 0 1-.553.894l-4.553 2.277a2 2 0 0 1-1.788 0l-4.212-2.106a2 2 0 0 0-1.788 0l-3.659 1.83A1 1 0 0 1 3 19.381V6.618a1 1 0 0 1 .553-.894l4.553-2.277a2 2 0 0 1 1.788 0z" fill="none" stroke="#ff823b" stroke-width="2" stroke-linecap="round" stroke-linejoin="round"/>
    <path d="M15 5.764v15" stroke="#ff823b" stroke-width="2" stroke-linecap="round" stroke-linejoin="round"/>
    <path d="M9 3.236v15" stroke="#ff823b" stroke-width="2" stroke-linecap="round" stroke-linejoin="round"/>
  </g>
</svg> 